<?xml version="1.0" encoding="UTF-8"?>
<svg id="_x35_LowCode" xmlns="http://www.w3.org/2000/svg" xmlns:xlink="http://www.w3.org/1999/xlink" viewBox="0 0 96 96">
  <defs>
    <style>
      .cls-1 {
        fill: url(#Neues_Verlaufsfeld_13);
      }

      .cls-2 {
        fill: #cc1518;
      }

      .cls-3 {
        fill: #e3504d;
      }
    </style>
    <linearGradient id="Neues_Verlaufsfeld_13" data-name="Neues Verlaufsfeld 13" x1="4.55" y1="48" x2="58.16" y2="48" gradientUnits="userSpaceOnUse">
      <stop offset="0" stop-color="#ef7c81"/>
      <stop offset=".5" stop-color="#e3504d"/>
      <stop offset="1" stop-color="#cc1518"/>
    </linearGradient>
  </defs>
  <path class="cls-1" d="M58.15,65.39c0-.21-.03-.41-.08-.61,0,0,0-.01,0-.02-.05-.19-.13-.37-.23-.54-.03-.05-.06-.1-.09-.15-.08-.13-.17-.25-.28-.36-.04-.04-.08-.09-.12-.13-.15-.14-.31-.27-.5-.38l-12.09-6.98c-.81-.47-1.81-.47-2.62,0l-8.17,4.71V9.6s-.01-.07-.01-.1c0-.16-.03-.31-.06-.47-.01-.06-.02-.11-.04-.16-.06-.19-.13-.38-.23-.56,0,0,0-.01,0-.02-.11-.18-.23-.34-.37-.48-.04-.04-.08-.07-.12-.11-.12-.11-.25-.21-.38-.29-.03-.02-.05-.04-.08-.06L20.57.35c-.81-.47-1.81-.47-2.62,0L5.86,7.33c-.19.11-.35.24-.5.38-.04.04-.08.08-.12.13-.1.11-.2.24-.28.36-.03.05-.06.1-.09.15-.09.17-.17.35-.23.54,0,0,0,.01,0,.02-.05.2-.08.4-.08.61,0,.02,0,.05,0,.07v69.82c0,.94.5,1.8,1.31,2.27l24.19,13.96c.4.23.86.35,1.31.35s.9-.12,1.31-.35l24.19-13.96c.81-.47,1.31-1.33,1.31-2.27v-13.96s0-.05,0-.07ZM43.45,61.5l6.86,3.96-18.95,10.94-9.47-5.47V18.09l6.86-3.96v51.32c0,.94.5,1.8,1.31,2.27s1.81.47,2.62,0l10.78-6.23ZM19.26,5.64l6.86,3.96-6.86,3.96-6.86-3.96,6.86-3.96ZM52.92,77.91l-21.57,12.45-21.57-12.45V14.13l6.86,3.96v54.34c0,.94.5,1.8,1.31,2.27l12.09,6.98c.81.47,1.81.47,2.62,0l20.26-11.7v7.92Z"/>
  <path class="cls-2" d="M88.83,31.42c1.45,0,2.62-1.17,2.62-2.62v-12.22c0-1.45-1.17-2.62-2.62-2.62h-15.04c-1.11-6.89-6.59-10.47-12.01-10.47s-10.9,3.59-12.01,10.47h-9.8c-1.45,0-2.62,1.17-2.62,2.62v33.16c0,.91.47,1.75,1.24,2.23.77.47,1.73.52,2.55.11l2.22-1.11,18.42,10.75v10.71c0,1.45,1.17,2.62,2.62,2.62h24.44c1.45,0,2.62-1.17,2.62-2.62v-13.96c0-1.45-1.17-2.62-2.62-2.62-7.2,0-10.47-6.33-10.47-12.22s3.28-12.22,10.47-12.22Z"/>
  <path class="cls-3" d="M78.36,43.64c0-5.88,3.28-12.22,10.47-12.22,1.45,0,2.62-1.17,2.62-2.62v-12.22c0-1.45-1.17-2.62-2.62-2.62h-15.04c-1.11-6.89-6.59-10.47-12.01-10.47s-10.9,3.59-12.01,10.47h-9.8c-1.45,0-2.62,1.17-2.62,2.62v27.05h41.02Z"/>
</svg>